<svg width="40" height="41" viewBox="0 0 40 41" fill="none" xmlns="http://www.w3.org/2000/svg">
<path d="M14.3314 29.6457V16.2673H9.88286V29.6471H14.33L14.3314 29.6457ZM12.1071 14.4385C13.6571 14.4385 14.6243 13.4099 14.6243 12.1255C14.5957 10.8139 13.6571 9.81524 12.1386 9.81524C10.6143 9.81524 9.62143 10.8153 9.62143 12.1255C9.62143 13.4113 10.5871 14.44 12.08 14.44L12.1071 14.4385ZM30.3671 29.6457V21.975C30.3671 17.8646 28.1729 15.9515 25.2486 15.9515C22.8857 15.9515 21.8286 17.2517 21.24 18.1617V16.2644H16.7929C16.8514 17.5217 16.7929 29.6457 16.7929 29.6457H21.24V22.1736C21.24 21.7735 21.2686 21.3735 21.3857 21.0906C21.7057 20.2905 22.4386 19.4633 23.6657 19.4633C25.2757 19.4633 25.9229 20.6891 25.9229 22.4879V29.6471H30.3686L30.3671 29.6457ZM20 0.96582C31.0457 0.96582 40 9.91953 40 20.9677C40 32.0145 31.0457 40.9696 20 40.9696C8.95286 40.9696 0 32.0145 0 20.9677C0 9.91953 8.95286 0.96582 20 0.96582Z" fill="white"/>
</svg>
