<svg width="40" height="41" viewBox="0 0 40 41" fill="none" xmlns="http://www.w3.org/2000/svg">
<path fill-rule="evenodd" clip-rule="evenodd" d="M40.0011 20.9671C40.0011 32.0138 31.0462 40.9696 20 40.9696C8.95385 40.9696 0 32.0138 0 20.9671C0 9.92117 8.95385 0.96582 20 0.96582C31.0462 0.96582 40.0011 9.92117 40.0011 20.9671ZM17.3352 24.8233L23.8833 20.9771L17.3352 17.1303V24.8233ZM30.0006 17.3916V24.5431C30.0006 27.9897 26.5532 27.9897 26.5533 27.9897H13.4457C10.0006 27.9897 10.0006 24.5431 10.0006 24.5431V17.3916C10.0006 13.9443 13.4457 13.9443 13.4457 13.9443H26.5532C30.0006 13.9443 30.0006 17.3916 30.0006 17.3916Z" fill="white"/>
</svg>
