<svg width="40" height="40" viewBox="0 0 40 40" fill="none" xmlns="http://www.w3.org/2000/svg">
<path fill-rule="evenodd" clip-rule="evenodd" d="M20.001 40C31.0467 40 40.001 31.0457 40.001 20C40.001 8.9543 31.0467 0 20.001 0C8.95528 0 0.000976562 8.9543 0.000976562 20C0.000976562 31.0457 8.95528 40 20.001 40ZM30.4166 12.7812C30.6916 13.5031 30.8635 14.2937 30.9322 15.4625C31.001 16.6313 31.001 17.0094 31.001 20C31.001 22.9906 31.001 23.3687 30.9666 24.5031C30.8979 25.6719 30.726 26.4969 30.451 27.1844C30.176 27.9062 29.7979 28.525 29.1791 29.1437C28.5604 29.7625 27.9416 30.1406 27.2197 30.4156C26.4979 30.6906 25.7072 30.8625 24.5385 30.9312C23.3697 31 22.9916 31 20.001 31C17.0104 31 16.6322 31 15.4979 30.9656C14.3291 30.8969 13.5041 30.725 12.8166 30.45C12.0947 30.175 11.476 29.7969 10.8572 29.1781C10.2385 28.5594 9.86035 27.9406 9.58535 27.2188C9.31035 26.4969 9.13848 25.7063 9.06973 24.5375C9.00098 23.3687 9.00098 22.9906 9.00098 20C9.00098 17.0094 9.00098 16.6313 9.06973 15.4625C9.13848 14.2937 9.31035 13.4688 9.58535 12.7812C9.86035 12.0594 10.2729 11.475 10.8572 10.8562C11.4416 10.2375 12.0604 9.85938 12.7822 9.58438C13.5041 9.30937 14.2947 9.1375 15.4635 9.06875C16.6322 9 17.0104 9 20.001 9C22.9916 9 23.3697 9 24.5385 9.06875C25.7072 9.1375 26.5322 9.30937 27.2197 9.58438C27.9416 9.85938 28.526 10.2031 29.1447 10.8219C29.7635 11.4406 30.1416 12.0594 30.4166 12.7812ZM28.5604 26.4625C28.6979 26.0844 28.9041 25.5 28.9385 24.4344C29.0072 23.3 29.0072 22.9219 29.0072 20C29.0072 17.0781 29.0072 16.7344 28.9385 15.5656C28.9041 14.5 28.6979 13.9156 28.5604 13.5375C28.3541 13.0219 28.1135 12.6438 27.7354 12.2656C27.3572 11.8875 26.9791 11.6469 26.4635 11.4406C26.0854 11.3031 25.501 11.0969 24.4354 11.0625C23.301 10.9937 22.9229 10.9937 20.001 10.9937C17.0791 10.9937 16.7354 10.9937 15.5666 11.0625C14.501 11.0969 13.9166 11.3031 13.5385 11.4406C13.0229 11.6469 12.6447 11.8875 12.2666 12.2656C11.8885 12.6438 11.6479 13.0219 11.4416 13.5375C11.3041 13.9156 11.0979 14.5 11.0635 15.5656C10.9947 16.7 10.9947 17.0438 10.9947 20C10.9947 22.9562 10.9947 23.3 11.0635 24.4344C11.0979 25.5 11.3041 26.0844 11.4416 26.4625C11.6479 26.9781 11.8885 27.3563 12.2666 27.7344C12.6447 28.1125 13.0229 28.3531 13.5385 28.5594C13.9166 28.6969 14.501 28.9031 15.5666 28.9375C16.701 29.0063 17.0791 29.0063 20.001 29.0063C22.9229 29.0063 23.2666 29.0063 24.4354 28.9375C25.501 28.9031 26.0854 28.6969 26.4635 28.5594C26.9791 28.3531 27.3572 28.1125 27.7354 27.7344C28.1135 27.3563 28.3541 26.9781 28.5604 26.4625ZM20.001 14.3625C16.8729 14.3625 14.3635 16.9062 14.3635 20C14.3635 23.1281 16.9072 25.6375 20.001 25.6375C23.0947 25.6375 25.6385 23.1281 25.6385 20C25.6385 16.8719 23.1291 14.3625 20.001 14.3625ZM20.001 23.6781C17.9729 23.6781 16.3229 22.0281 16.3229 20C16.3229 17.9719 17.9729 16.3219 20.001 16.3219C22.0291 16.3219 23.6791 17.9719 23.6791 20C23.6791 22.0281 22.0291 23.6781 20.001 23.6781ZM24.9554 15.0455C24.7105 14.8006 24.5729 14.4683 24.5728 14.1219C24.5728 13.7754 24.7105 13.4432 24.9554 13.1982C25.2004 12.9532 25.5327 12.8156 25.8791 12.8156C26.2255 12.8156 26.5578 12.9532 26.8028 13.1982C27.0477 13.4432 27.1854 13.7754 27.1854 14.1219C27.1854 14.4683 27.0477 14.8006 26.8028 15.0455C26.5578 15.2905 26.2255 15.4281 25.8791 15.4281C25.5327 15.4281 25.2004 15.2905 24.9554 15.0455Z" fill="white"/>
</svg>
