<svg width="40" height="40" viewBox="0 0 40 40" fill="none" xmlns="http://www.w3.org/2000/svg">
<g clip-path="url(#clip0_1_407)">
<path d="M40.001 20C40.001 8.95455 31.0464 0 20.001 0C8.95552 0 0.000976562 8.95455 0.000976562 20C0.000976562 31.0455 8.95552 40 20.001 40C31.0464 40 40.001 31.0455 40.001 20ZM9.23189 27.1073C9.57734 27.1509 9.93007 27.1745 10.2864 27.1745C12.3573 27.1782 14.2628 26.4309 15.7737 25.1764C13.8392 25.1309 12.2082 23.7636 11.6464 21.8873C11.9155 21.9436 12.1937 21.9764 12.4773 21.9782C12.881 21.98 13.2701 21.9255 13.641 21.82C11.6192 21.3727 10.0955 19.4545 10.0955 17.1691C10.0955 17.1491 10.0955 17.1291 10.0955 17.1091C10.6919 17.4691 11.3719 17.6873 12.0973 17.72C10.9137 16.8636 10.1337 15.4091 10.1337 13.7727C10.1337 12.9073 10.3519 12.1 10.7319 11.4091C12.9119 14.2909 16.1682 16.2036 19.8392 16.4418C19.7628 16.0982 19.7246 15.74 19.7246 15.3745C19.7246 12.7909 21.7028 10.7291 24.1428 10.7691C25.4137 10.7909 26.5628 11.3745 27.3682 12.2909C28.3755 12.0982 29.321 11.7273 30.1737 11.2091C29.8446 12.2873 29.1428 13.1855 28.2301 13.7473C29.1246 13.6473 29.9755 13.4109 30.7682 13.0527C30.1755 13.9745 29.4264 14.78 28.5628 15.4236C28.5719 15.6236 28.5755 15.8236 28.5755 16.0236C28.5755 22.1582 24.1301 29.2327 16.0028 29.2291C13.5101 29.2309 11.1864 28.4491 9.23189 27.1073Z" fill="white"/>
</g>
<defs>
<clipPath id="clip0_1_407">
<rect width="40" height="40" fill="white" transform="translate(0.000976562)"/>
</clipPath>
</defs>
</svg>
