<svg width="20" height="20" viewBox="0 0 20 20" fill="none" xmlns="http://www.w3.org/2000/svg">
<path d="M7.16571 14.3412V7.65197H4.94143V14.3419H7.165L7.16571 14.3412ZM6.05357 6.73759C6.82857 6.73759 7.31214 6.22326 7.31214 5.58105C7.29786 4.92528 6.82857 4.42595 6.06929 4.42595C5.30714 4.42595 4.81071 4.92599 4.81071 5.58105C4.81071 6.22397 5.29357 6.73831 6.04 6.73831L6.05357 6.73759ZM15.1836 14.3412V10.5058C15.1836 8.45061 14.0864 7.49409 12.6243 7.49409C11.4429 7.49409 10.9143 8.14416 10.62 8.5992V7.65054H8.39643C8.42571 8.27917 8.39643 14.3412 8.39643 14.3412H10.62V10.6051C10.62 10.4051 10.6343 10.2051 10.6929 10.0636C10.8529 9.66359 11.2193 9.24998 11.8329 9.24998C12.6379 9.24998 12.9614 9.86289 12.9614 10.7623V14.3419H15.1843L15.1836 14.3412ZM10 0.00123787C15.5229 0.00123787 20 4.47809 20 10.0022C20 15.5256 15.5229 20.0031 10 20.0031C4.47643 20.0031 0 15.5256 0 10.0022C0 4.47809 4.47643 0.00123787 10 0.00123787Z" fill="#10589E"/>
</svg>
