<svg width="21" height="21" viewBox="0 0 21 21" fill="none" xmlns="http://www.w3.org/2000/svg">
<path fill-rule="evenodd" clip-rule="evenodd" d="M20.1512 10.3037C20.1512 15.827 15.6739 20.3049 10.1509 20.3049C4.62805 20.3049 0.151245 15.827 0.151245 10.3037C0.151245 4.7807 4.62805 0.303024 10.1509 0.303024C15.6739 0.303024 20.1512 4.7807 20.1512 10.3037ZM8.81857 12.2314L12.0925 10.3085L8.81857 8.38524V12.2314ZM15.1511 8.51587V12.0913C15.1511 13.8144 13.4274 13.8144 13.4275 13.8144H6.87388C5.15137 13.8144 5.15137 12.0913 5.15137 12.0913V8.51587C5.15137 6.79241 6.87388 6.79241 6.87388 6.79241H13.4274C15.1511 6.79241 15.1511 8.51587 15.1511 8.51587Z" fill="#10589E"/>
</svg>
