<svg width="18" height="18" viewBox="0 0 18 18" fill="none" xmlns="http://www.w3.org/2000/svg">
<path d="M10.2775 2.37073C9.86384 2.29148 9.43676 2.25 9 2.25C8.97783 2.25 8.95567 2.2501 8.9335 2.25032L8.50829 5.23306C8.49547 5.32305 8.46103 5.40859 8.40792 5.48236C8.35482 5.55613 8.28463 5.61593 8.20336 5.65664L6.44894 6.53541L5.55579 8.77217C5.51995 8.86195 5.46157 8.94097 5.38628 9.00162C5.311 9.06227 5.22136 9.10249 5.12601 9.11841L2.2758 9.59423C2.41828 11.2277 3.14255 12.6944 4.24023 13.7861L3.92149 11.558C3.88065 11.2725 4.06229 11.0024 4.34203 10.9326L8.32331 9.93839C8.41748 9.91488 8.51613 9.91613 8.60967 9.94202C8.70321 9.96792 8.78846 10.0176 8.85713 10.0862L10.5581 11.7853C10.5778 11.805 10.6029 11.8184 10.6302 11.8238C10.6575 11.8292 10.6858 11.8263 10.7115 11.8156L13.3557 10.7152L13.908 10.7017C14.2186 10.694 14.4766 10.9396 14.4842 11.2502C14.4843 11.2548 14.4844 11.2594 14.4844 11.264V12.9358C15.2809 11.8279 15.75 10.4687 15.75 8.99998C15.75 8.28807 15.6398 7.60191 15.4355 6.95762L13.6212 7.44376C13.4833 7.48071 13.3365 7.46384 13.2106 7.39658L10.9633 6.19622C10.8831 6.15338 10.8145 6.09173 10.7633 6.01657C10.7122 5.9414 10.68 5.85495 10.6696 5.76462L10.2775 2.37073ZM11.306 2.65416L11.6278 5.45217L13.5484 6.4475L15.0682 6.04028C14.3046 4.47764 12.9552 3.25359 11.306 2.65416ZM5.3974 14.7092C6.43987 15.3685 7.67538 15.75 9 15.75C10.6618 15.75 12.1833 15.1495 13.3594 14.1537V12.0227C13.3594 11.9996 13.3537 11.9768 13.3427 11.9564C13.3318 11.936 13.316 11.9186 13.2968 11.9057C13.2775 11.8929 13.2554 11.885 13.2324 11.8828C13.2093 11.8805 13.1861 11.884 13.1647 11.8929L10.7352 12.9042C10.6324 12.947 10.5192 12.9583 10.41 12.9367C10.3007 12.9151 10.2003 12.8615 10.1215 12.7828L8.37708 11.0403C8.35992 11.0231 8.33861 11.0107 8.31522 11.0042C8.29184 10.9978 8.26717 10.9974 8.24363 11.0033L5.10704 11.7867C5.07328 11.7951 5.04384 11.8157 5.02442 11.8446C5.005 11.8735 4.99698 11.9086 5.00191 11.943L5.3974 14.7093V14.7092ZM2.26143 8.60402L4.73513 8.19086L5.6003 6.02446C5.65138 5.89655 5.74761 5.79182 5.87076 5.73013L7.57141 4.8783L7.9344 2.33365C4.84008 2.82437 2.44577 5.41779 2.26143 8.60396V8.60402ZM9 16.875C4.65075 16.875 1.125 13.3492 1.125 9C1.125 4.65075 4.65075 1.125 9 1.125C13.3492 1.125 16.875 4.65075 16.875 9C16.875 13.3492 13.3492 16.875 9 16.875Z" fill="black"/>
</svg>
