<svg width="16" height="16" viewBox="0 0 16 16" fill="none" xmlns="http://www.w3.org/2000/svg">
<g clip-path="url(#clip0_1_10)">
<path d="M3.63221 2.4801C3.93784 2.39821 4.25685 2.44053 4.5301 2.59944C4.7366 2.71963 4.93271 2.85684 5.1164 3.00964L5.11682 3.01001L5.11724 3.01038C5.39508 3.24134 5.64471 3.53001 5.85886 3.86862C6.04371 4.16186 6.0236 4.5414 5.80869 4.81332L5.27806 5.48446C4.80411 6.08397 4.79007 6.93229 5.24364 7.54742L5.2446 7.54861L5.24542 7.54985C5.7143 8.18203 6.23706 8.7724 6.80784 9.31434C7.45622 9.93312 8.18344 10.4636 8.97066 10.8921C9.3556 11.1019 9.80092 11.155 10.2247 11.0415C10.4105 10.9917 10.5852 10.9114 10.7441 10.8028L10.7449 10.8023L10.7457 10.8018L11.6424 10.1872C11.753 10.1114 11.8745 10.0554 12.0035 10.0209C12.2918 9.94361 12.5958 9.9778 12.8595 10.1171C13.0764 10.2334 13.2816 10.3703 13.4721 10.5261L13.473 10.5268L13.4738 10.5276C13.6411 10.6638 13.7993 10.8107 13.9476 10.9675L13.9484 10.9682L13.9491 10.969C14.1659 11.1972 14.2806 11.4961 14.2722 11.8106C14.2638 12.1247 14.1336 12.4176 13.9054 12.6362L13.0934 13.393C12.867 13.6043 12.5891 13.7584 12.2898 13.8386C12.0598 13.9002 11.8231 13.918 11.5865 13.8913C11.1008 13.8365 10.6022 13.7259 10.1049 13.5626C9.59726 13.396 9.07587 13.1695 8.55502 12.8894C7.48424 12.3138 6.37274 11.489 5.25129 10.4381C4.27287 9.5214 3.49627 8.59117 2.94309 7.67371C2.41175 6.79245 2.073 5.8989 1.9364 5.01783C1.88919 4.71373 1.91663 4.40271 2.01635 4.11158C2.11608 3.82044 2.28509 3.55792 2.50883 3.34663L3.12804 2.76159C3.26978 2.62769 3.44397 2.53038 3.63157 2.48012M3.30804 1.27271C2.92801 1.37454 2.56982 1.56935 2.2696 1.85313L1.65039 2.43817C0.897281 3.14952 0.542333 4.18592 0.701115 5.20954C1.02676 7.3093 2.26747 9.35524 4.39638 11.3503C6.80282 13.6054 9.15072 14.8748 11.4462 15.1335C11.8372 15.1776 12.233 15.1479 12.613 15.046C13.1053 14.9141 13.5643 14.663 13.9457 14.3074L14.7624 13.5461C15.739 12.6183 15.7791 11.0812 14.8552 10.1084C14.6698 9.91244 14.4719 9.7287 14.2627 9.55835C14.0088 9.35082 13.7354 9.16843 13.4462 9.01376C12.9038 8.72606 12.2725 8.6545 11.6793 8.81346C11.4176 8.88358 11.1657 8.998 10.935 9.15622L10.0384 9.77079C9.99576 9.80001 9.94915 9.82107 9.90071 9.83405C9.79083 9.86349 9.67176 9.85075 9.56871 9.79457C8.87756 9.41845 8.23911 8.95272 7.66989 8.40945C7.15068 7.91702 6.67531 7.38034 6.24915 6.80548C6.12872 6.64218 6.13239 6.41861 6.25816 6.25955L6.78879 5.58841C7.33318 4.89983 7.38356 3.94261 6.91485 3.20035C6.63042 2.751 6.29766 2.36636 5.91557 2.04881C5.67821 1.85126 5.42471 1.67396 5.15772 1.51877C4.58443 1.18548 3.91809 1.10925 3.3082 1.27267L3.30804 1.27271ZM11.0798 4.17561C11.0366 3.04111 10.7129 2.22439 10.3409 1.65326C10.3337 1.64224 10.3265 1.63122 10.3192 1.62023C10.3124 1.60977 10.3053 1.59955 10.2982 1.58898C10.2891 1.57541 10.2796 1.56177 10.2703 1.54825C10.2636 1.53889 10.2571 1.52963 10.2503 1.52012C10.2425 1.50911 10.2348 1.49825 10.2268 1.48713L10.2262 1.4863C10.2183 1.47533 10.2102 1.46455 10.2022 1.45377C10.1951 1.44449 10.1885 1.43528 10.1815 1.42615C10.1715 1.41312 10.1615 1.39995 10.1514 1.38697C10.1437 1.3769 10.1361 1.36714 10.1283 1.35742C10.12 1.34702 10.1118 1.33677 10.1035 1.32653C9.67525 0.796172 8.9985 0.236154 7.93272 -0.155405C7.61786 -0.270977 7.31717 -0.107263 7.26097 0.210615C7.229 0.391943 7.28367 0.584511 7.39506 0.737616C7.47883 0.85283 7.59466 0.945863 7.72979 0.995553C8.00826 1.0979 8.25929 1.21553 8.48245 1.34807C8.84914 1.5659 9.1405 1.82381 9.35406 2.12036C9.56991 2.41516 9.72555 2.77204 9.81934 3.18787C9.87655 3.44123 9.91093 3.71623 9.92224 4.01262C9.92785 4.15671 9.98055 4.29545 10.0644 4.41081C10.1758 4.56407 10.3418 4.67536 10.5242 4.70106C10.8439 4.74594 11.0926 4.51059 11.0799 4.17542L11.0798 4.17561Z" fill="#999999"/>
</g>
<defs>
<clipPath id="clip0_1_10">
<rect width="16" height="16" fill="white"/>
</clipPath>
</defs>
</svg>
