<svg width="16" height="16" viewBox="0 0 16 16" fill="none" xmlns="http://www.w3.org/2000/svg">
<path d="M8.01067 3.85867C6.66134 3.85867 5.56534 4.95467 5.56534 6.304C5.56534 7.65333 6.66134 8.74933 8.01067 8.74933C9.36 8.74933 10.456 7.65333 10.456 6.304C10.456 4.95467 9.36267 3.85867 8.01067 3.85867ZM8.01067 7.68267C7.25067 7.68267 6.632 7.064 6.632 6.304C6.632 5.544 7.25067 4.92533 8.01067 4.92533C8.77067 4.92533 9.38934 5.544 9.38934 6.304C9.38934 7.064 8.77067 7.68267 8.01067 7.68267Z" fill="#999999"/>
<path d="M8.01065 0.615999C4.62399 0.615999 1.87732 3.36267 1.87732 6.74933C1.87732 10.08 4.93865 13.2053 6.73599 14.752C7.09061 15.057 7.54294 15.2245 8.01065 15.224C8.46399 15.224 8.91999 15.0667 9.28532 14.752C11.0827 13.2053 14.144 10.08 14.144 6.74933C14.144 3.36 11.3973 0.615999 8.01065 0.615999ZM8.58932 13.9413C8.42932 14.08 8.22399 14.1547 8.01065 14.1547C7.79732 14.1547 7.59199 14.0773 7.43199 13.9413C6.08265 12.7787 2.94399 9.752 2.94399 6.74667C2.94399 3.952 5.21599 1.68 8.01065 1.68C10.8053 1.68 13.0773 3.952 13.0773 6.74667C13.0773 9.75467 9.93865 12.7813 8.58932 13.9413Z" fill="#999999"/>
</svg>
