<svg width="16" height="16" viewBox="0 0 16 16" fill="none" xmlns="http://www.w3.org/2000/svg">
<path d="M14.5 14H1.5C0.673 14 0 13.327 0 12.5V3.5C0 2.673 0.673 2 1.5 2H14.5C15.327 2 16 2.673 16 3.5V12.5C16 13.327 15.327 14 14.5 14ZM1.5 3C1.36739 3 1.24021 3.05268 1.14645 3.14645C1.05268 3.24021 1 3.36739 1 3.5V12.5C1 12.6326 1.05268 12.7598 1.14645 12.8536C1.24021 12.9473 1.36739 13 1.5 13H14.5C14.775 13 15 12.775 15 12.5V3.5C15 3.36739 14.9473 3.24021 14.8536 3.14645C14.7598 3.05268 14.6326 3 14.5 3H1.5Z" fill="#999999"/>
<path d="M8 8.708C7.90138 8.70804 7.80498 8.67881 7.723 8.624L2.723 5.291C2.66625 5.25557 2.6172 5.20912 2.57873 5.15439C2.54026 5.09966 2.51317 5.03777 2.49905 4.97238C2.48494 4.90699 2.48408 4.83944 2.49655 4.77371C2.50901 4.70799 2.53454 4.64543 2.57161 4.58975C2.60869 4.53407 2.65656 4.4864 2.7124 4.44955C2.76823 4.41271 2.83089 4.38744 2.89666 4.37525C2.96244 4.36306 3.02999 4.36419 3.09532 4.37857C3.16065 4.39296 3.22243 4.42031 3.277 4.459L8 7.607L12.723 4.459C12.8333 4.39012 12.9662 4.36694 13.0933 4.39439C13.2204 4.42183 13.3319 4.49774 13.404 4.60601C13.4761 4.71427 13.5031 4.84637 13.4794 4.97426C13.4557 5.10215 13.3831 5.21577 13.277 5.291L8.277 8.624C8.19523 8.67925 8.09868 8.70853 8 8.708Z" fill="#999999"/>
</svg>
