<svg width="16" height="16" viewBox="0 0 16 16" fill="none" xmlns="http://www.w3.org/2000/svg">
<path d="M12.498 7.58464H12.528C12.5312 7.59338 12.5319 7.60286 12.53 7.61198C12.4367 8.09064 12.348 8.59998 12.2647 9.07931C12.2153 9.36398 12.1673 9.63731 12.122 9.88798C11.9907 10.6066 11.8687 11.1766 11.7353 11.578C11.6373 11.8706 11.5373 12.0793 11.4253 12.208C11.3936 12.2473 11.3541 12.2798 11.3093 12.3033C11.2466 12.3307 11.1784 12.3435 11.11 12.3406L8.366 12.3366H8.36533L5.33467 12.3333H5.33333L5.332 12.3313H5.33133C5.32964 12.3296 5.32828 12.3275 5.32733 12.3253V12.324L5.32667 12.32C5.31933 11.572 5.30733 10.8593 5.296 10.1573C5.282 9.31731 5.268 8.49464 5.26267 7.64864C6.60933 7.01531 7.54733 5.60864 7.68933 4.13531C7.77133 3.79331 7.90467 3.62398 7.99667 3.54264C8.098 3.45331 8.21667 3.40931 8.34333 3.40398C8.63733 3.39198 8.852 3.56798 8.91 3.77198C9.05333 4.27398 9.15133 5.29731 9.11467 6.19664L9.05733 7.58464H10.4467C10.744 7.58464 10.988 7.58398 11.2153 7.58264C11.626 7.58131 11.982 7.57931 12.498 7.58464ZM8.362 13.67L11.1153 13.674C12.3333 13.666 12.7773 12.666 13 11.9993C13.23 11.3086 13.4013 10.3246 13.5827 9.28264C13.664 8.81598 13.7473 8.33664 13.8387 7.86731C13.899 7.55874 13.8524 7.23882 13.7064 6.96032C13.5605 6.68181 13.324 6.46136 13.036 6.33531C12.8667 6.27937 12.6896 6.251 12.5113 6.25131C12.2353 6.24864 12.0013 6.24798 11.7813 6.24798L11.198 6.24931C10.9713 6.25064 10.7313 6.25131 10.4467 6.25131C10.4587 5.95798 10.4587 5.64798 10.4467 5.33798C10.4193 4.61131 10.33 3.88798 10.1927 3.40664C9.69667 1.66598 6.88533 1.41198 6.36867 3.93531C6.27667 5.23864 5.29 6.42198 4.104 6.63064C3.96067 6.65598 3.92733 6.71064 3.92733 6.85598C3.92667 7.99398 3.94467 9.08931 3.96267 10.1993C3.97467 10.8993 3.986 11.606 3.99333 12.3326C4 13.0693 4.59733 13.666 5.33333 13.666L8.36 13.67H8.362ZM3.33333 7.66598C3.33335 7.57842 3.31611 7.49172 3.28262 7.41082C3.24912 7.32993 3.20001 7.25642 3.13811 7.19451C3.0762 7.13259 3.0027 7.08347 2.92181 7.04996C2.84092 7.01646 2.75422 6.99921 2.66667 6.99921C2.57911 6.99921 2.49241 7.01646 2.41152 7.04996C2.33063 7.08347 2.25713 7.13259 2.19523 7.19451C2.13332 7.25642 2.08421 7.32993 2.05072 7.41082C2.01722 7.49172 1.99999 7.57842 2 7.66598V12.9993C1.99999 13.0869 2.01722 13.1736 2.05072 13.2545C2.08421 13.3354 2.13332 13.4089 2.19523 13.4708C2.25713 13.5327 2.33063 13.5818 2.41152 13.6153C2.49241 13.6488 2.57911 13.6661 2.66667 13.6661C2.75422 13.6661 2.84092 13.6488 2.92181 13.6153C3.0027 13.5818 3.0762 13.5327 3.13811 13.4708C3.20001 13.4089 3.24912 13.3354 3.28262 13.2545C3.31611 13.1736 3.33335 13.0869 3.33333 12.9993V7.66598Z" fill="#F6AB00"/>
</svg>
