<svg width="16" height="16" viewBox="0 0 16 16" fill="none" xmlns="http://www.w3.org/2000/svg">
<g clip-path="url(#clip0_1_44)">
<path d="M15.8182 15.8303C15.586 16.0566 15.2097 16.0566 14.9775 15.8303L12.5995 13.3793C11.271 14.4297 9.5796 15.0613 7.73556 15.0613C3.46751 15.0614 0.00756836 11.6898 0.00756836 7.5307C0.00756836 3.37158 3.46751 0 7.73556 0C12.0036 0 15.4635 3.37155 15.4635 7.5307C15.4635 9.47536 14.7006 11.2422 13.4588 12.5782L15.8182 15.011C16.0504 15.2374 16.0504 15.6042 15.8182 15.8303ZM7.73556 1.52242C4.12411 1.52242 1.56002 4.01142 1.56002 7.53067C1.56002 11.0499 4.12414 13.5391 7.73556 13.5391C11.347 13.5391 13.9111 11.0499 13.9111 7.53067C13.9111 4.01145 11.347 1.52242 7.73556 1.52242Z" fill="black"/>
</g>
<defs>
<clipPath id="clip0_1_44">
<rect width="16" height="16" fill="white"/>
</clipPath>
</defs>
</svg>
