<svg width="24" height="24" viewBox="0 0 24 24" fill="none" xmlns="http://www.w3.org/2000/svg">
<path d="M18.692 17.6313C20.1468 15.9265 20.972 13.764 20.972 11.4862C20.9723 6.24675 16.7255 2 11.4862 2C6.247 2 2 6.247 2 11.486C2 16.7253 6.247 20.9725 11.486 20.9725C12.4248 20.9733 13.3584 20.8347 14.2565 20.5613C14.4456 20.5023 14.6038 20.3709 14.6964 20.1958C14.7889 20.0206 14.8085 19.816 14.7507 19.6265C14.6929 19.437 14.5625 19.278 14.3879 19.1844C14.2134 19.0907 14.0088 19.0699 13.819 19.1265C13.0627 19.3567 12.2765 19.4733 11.486 19.4725C7.0755 19.4723 3.5 15.8968 3.5 11.486C3.5 7.0755 7.0755 3.5 11.486 3.5C15.8968 3.5 19.4725 7.0755 19.4725 11.486C19.4725 13.5785 18.6433 15.557 17.1958 17.0483C17.0371 17.2116 16.9491 17.4309 16.9508 17.6586C16.9525 17.8863 17.0437 18.1042 17.2048 18.2653L20.7198 21.7803C20.8608 21.919 21.0509 21.9965 21.2488 21.9957C21.4466 21.9949 21.6362 21.916 21.7761 21.7761C21.916 21.6362 21.995 21.4467 21.9958 21.2488C21.9966 21.051 21.9192 20.8608 21.7805 20.7198L18.692 17.6313Z" fill="#F6AB00"/>
</svg>
