<svg width="20" height="20" viewBox="0 0 20 20" fill="none" xmlns="http://www.w3.org/2000/svg">
<path d="M15.2001 17.731H4.80006C4.31075 17.7317 3.82665 17.6306 3.3785 17.4342C2.93034 17.2378 2.52793 16.9503 2.19682 16.59C1.86571 16.2298 1.61314 15.8046 1.45515 15.3415C1.29715 14.8784 1.23719 14.3875 1.27906 13.9L2.00006 5.4C2.06904 4.51617 2.47009 3.69123 3.12257 3.09107C3.77504 2.49091 4.63055 2.16004 5.51706 2.165H14.4831C15.3696 2.16004 16.2251 2.49091 16.8776 3.09107C17.53 3.69123 17.9311 4.51617 18.0001 5.4L18.7211 13.9C18.7629 14.3875 18.703 14.8784 18.545 15.3415C18.387 15.8046 18.1344 16.2298 17.8033 16.59C17.4722 16.9503 17.0698 17.2378 16.6216 17.4342C16.1735 17.6306 15.6894 17.7317 15.2001 17.731ZM5.51706 3.565C4.9833 3.5631 4.46854 3.763 4.07595 4.12462C3.68335 4.48625 3.44193 4.98288 3.40006 5.515L2.67906 14.022C2.65414 14.3157 2.69047 14.6113 2.78574 14.8902C2.88101 15.1691 3.03315 15.4252 3.23253 15.6423C3.43191 15.8593 3.67418 16.0326 3.94401 16.1511C4.21383 16.2697 4.50534 16.331 4.80006 16.331H15.2001C15.4949 16.3311 15.7865 16.2699 16.0564 16.1515C16.3264 16.033 16.5688 15.8597 16.7683 15.6426C16.9677 15.4256 17.12 15.1694 17.2153 14.8905C17.3106 14.6115 17.347 14.3158 17.3221 14.022L16.6011 5.515C16.5591 4.98202 16.317 4.48466 15.9233 4.12291C15.5297 3.76117 15.0137 3.56184 14.4791 3.565H5.51706Z" fill="#999999"/>
<path d="M9.99999 9.693C9.27354 9.69121 8.56235 9.48447 7.94816 9.09653C7.33397 8.70859 6.84172 8.15521 6.52799 7.5C6.44843 7.33225 6.43876 7.13976 6.50111 6.96489C6.56347 6.79001 6.69274 6.64707 6.86049 6.5675C7.02824 6.48794 7.22073 6.47827 7.3956 6.54062C7.57048 6.60298 7.71342 6.73225 7.79299 6.9C7.99089 7.31787 8.30336 7.67097 8.69406 7.91824C9.08476 8.1655 9.53762 8.29677 9.99999 8.29677C10.4624 8.29677 10.9152 8.1655 11.3059 7.91824C11.6966 7.67097 12.0091 7.31787 12.207 6.9C12.2464 6.81694 12.3018 6.74245 12.3699 6.68079C12.4381 6.61913 12.5178 6.5715 12.6044 6.54062C12.691 6.50975 12.7828 6.49623 12.8746 6.50084C12.9664 6.50545 13.0564 6.5281 13.1395 6.5675C13.2226 6.6069 13.297 6.66227 13.3587 6.73045C13.4204 6.79864 13.468 6.8783 13.4989 6.96489C13.5297 7.05148 13.5433 7.1433 13.5386 7.23512C13.534 7.32693 13.5114 7.41694 13.472 7.5C13.1583 8.15521 12.666 8.70859 12.0518 9.09653C11.4376 9.48447 10.7264 9.69121 9.99999 9.693Z" fill="#999999"/>
</svg>
