<svg width="26" height="26" viewBox="0 0 26 26" fill="none" xmlns="http://www.w3.org/2000/svg">
<rect width="4" height="4" transform="matrix(1 0 0 -1 0 14.9961)" fill="#CCCCCC"/>
<rect width="4" height="4" transform="matrix(1 0 0 -1 6 14.9961)" fill="#CCCCCC"/>
<rect width="4" height="4" transform="matrix(1 0 0 -1 16 14.9961)" fill="#CCCCCC"/>
<rect width="4" height="4" transform="matrix(1 0 0 -1 22 14.9961)" fill="#CCCCCC"/>
<rect width="4" height="4" transform="matrix(-4.37114e-08 1 1 4.37114e-08 11 0)" fill="#CCCCCC"/>
<rect width="4" height="4" transform="matrix(-4.37114e-08 1 1 4.37114e-08 11 6)" fill="#CCCCCC"/>
<rect width="4" height="4" transform="matrix(-4.37114e-08 1 1 4.37114e-08 11 16)" fill="#CCCCCC"/>
<rect width="4" height="4" transform="matrix(-4.37114e-08 1 1 4.37114e-08 11 22)" fill="#CCCCCC"/>
</svg>
