<svg width="40" height="40" viewBox="0 0 40 40" fill="none" xmlns="http://www.w3.org/2000/svg">
<path d="M35.0898 5.39844C35.0898 5.375 35.0898 5.33594 35.082 5.29297C35.0664 5.19141 35.0312 5.09375 34.9805 5C34.9727 4.98047 34.9609 4.96094 34.9492 4.94141C34.9336 4.91406 34.9102 4.89062 34.8867 4.86719C34.8398 4.80469 34.7852 4.75391 34.7305 4.70703C34.6914 4.67578 34.6602 4.65625 34.6328 4.64453C34.6094 4.62891 34.5742 4.60156 34.5195 4.57812C34.4727 4.55859 34.4297 4.54688 34.4062 4.54297C34.3828 4.53516 34.3477 4.52734 34.3086 4.51953C34.2266 4.50391 34.1445 4.5 34.0625 4.50781H34.0547C34.0391 4.50781 34.0078 4.51172 33.9687 4.51953C33.8789 4.53516 33.793 4.56641 33.7109 4.60937C33.6875 4.61719 33.668 4.62891 33.6445 4.64063L33.6406 4.64453C33.6367 4.64844 33.6328 4.64844 33.6289 4.65234L5.30469 21.1758L5.29688 21.1797C5.01563 21.3555 4.85156 21.6562 4.85156 21.9844C4.85156 22.3086 5.02344 22.6211 5.30469 22.793L15.0937 28.6172C15.1133 31.2188 15.125 34.1328 15.1016 34.5352C15.043 34.9141 15.2148 35.2852 15.543 35.4883C15.6914 35.5781 15.8672 35.6289 16.0391 35.6289C16.293 35.6289 16.5312 35.5312 16.7109 35.3516L21.5586 30.5078L29.6914 33.3203C29.957 33.418 30.2539 33.3945 30.5039 33.25C30.7539 33.1055 30.9219 32.8555 30.9648 32.5703L35.0859 5.59375C35.1016 5.51562 35.0937 5.44531 35.0898 5.39844ZM30.2266 8.92969L15.7969 26.8281L7.63672 21.9922L30.2266 8.92969ZM32.6602 8.90234L29.2617 31.1367L21.6484 28.5156C21.3008 28.3867 20.9062 28.4727 20.6445 28.7344L17.0156 32.3633C17.0156 31.3438 17.0078 30.0039 16.9922 28.3672L32.6602 8.90234Z" fill="#F6AB00"/>
<path d="M32.9219 7.375L30.2266 8.92969L15.7969 26.8281L15.75 26.8008L16.9961 27.5781V28.3633L32.6602 8.90234L32.9219 7.375Z" fill="#F6AB00"/>
</svg>
